<?xml version="1.0" encoding="utf-8"?>
<!-- Generator: Adobe Illustrator 21.1.0, SVG Export Plug-In . SVG Version: 6.00 Build 0)  -->
<svg version="1.1" id="Layer_1" xmlns="http://www.w3.org/2000/svg" xmlns:xlink="http://www.w3.org/1999/xlink" x="0px" y="0px"
	 viewBox="0 0 64 64" style="enable-background:new 0 0 64 64;" xml:space="preserve">
<path d="M32.1,3C15.7,3,2.4,16.3,2.4,32.6c0,16.3,13.3,29.6,29.6,29.6c16.3,0,29.6-13.3,29.6-29.6C61.7,16.3,48.4,3,32.1,3
	 M32.1,60.3c-15.3,0-27.7-12.4-27.7-27.7c0-15.3,12.4-27.7,27.7-27.7s27.7,12.4,27.7,27.7C59.8,47.9,47.3,60.3,32.1,60.3"/>
<path d="M32.1,16.5c-5.2,0-9.4,4.2-9.4,9.4c0,1.1,0.9,1.9,1.9,1.9c1.1,0,1.9-0.9,1.9-1.9c0-3.1,2.5-5.6,5.6-5.6
	c3.1,0,5.6,2.5,5.6,5.6c0,3.1-2.5,5.6-5.6,5.6c-1.1,0-1.9,0.9-1.9,1.9v6.8c0,1.1,0.9,1.9,1.9,1.9c1.1,0,1.9-0.9,1.9-1.9v-5
	c4.3-0.9,7.5-4.7,7.5-9.2C41.5,20.8,37.3,16.5,32.1,16.5"/>
<path d="M32.1,43.5c-1.3,0-2.4,1.1-2.4,2.4c0,1.3,1.1,2.4,2.4,2.4c1.3,0,2.4-1.1,2.4-2.4C34.5,44.6,33.4,43.5,32.1,43.5"/>
</svg>
