<?xml version="1.0" encoding="utf-8"?>
<!-- Generator: Adobe Illustrator 21.1.0, SVG Export Plug-In . SVG Version: 6.00 Build 0)  -->
<svg version="1.1" id="Layer_1" xmlns="http://www.w3.org/2000/svg" xmlns:xlink="http://www.w3.org/1999/xlink" x="0px" y="0px"
	 viewBox="0 0 64 64" style="enable-background:new 0 0 64 64;" xml:space="preserve">
<style type="text/css">
	.st0{fill:#231F20;}
</style>
<path class="st0" d="M11.2,33.1c0-0.4,0.1-1.8,1.1-2.2c1-0.4,2,0.6,2.1,0.8c0.3,0.3,0.3,0.8,0,1.1c-0.3,0.3-0.8,0.3-1.1,0
	c-0.1-0.1-0.2-0.2-0.4-0.3c0,0.1-0.1,0.3-0.1,0.6c-0.1,2.1,1.5,2.7,1.6,2.7c0.3,0.1,0.5,0.4,0.5,0.7c0.5,5.6,4.9,7.5,7,7.5
	c2.1,0,6.5-1.8,7-7.5c0-0.3,0.2-0.6,0.5-0.7c0.1,0,1.7-0.7,1.6-2.7c0-0.3,0-0.5-0.1-0.6c-0.1,0.1-0.3,0.2-0.4,0.3
	c-0.3,0.3-0.8,0.3-1.1,0c-0.3-0.3-0.3-0.8,0-1.1c0.2-0.2,1.2-1.2,2.1-0.8c1,0.4,1,1.7,1.1,2.2c0.1,2.4-1.4,3.6-2.2,4.1
	c-0.7,5.9-5.4,8.5-8.6,8.5c-3.2,0-7.8-2.6-8.6-8.5C12.6,36.7,11.2,35.6,11.2,33.1 M21.9,49.5c0.2,0,2.3-0.5,2.3-2.5h-4.5
	C19.7,49,21.7,49.5,21.9,49.5 M23.4,49.8c-0.2,0-0.4,0-0.6,0.1c-0.4,0.3-0.7,0.4-0.9,0.4c-0.2,0-0.5-0.1-0.9-0.4
	c-0.2-0.1-0.4-0.2-0.6-0.1c-0.2,0-0.4,0.2-0.5,0.3c-0.3,0.5-1.9,8.6-1.9,8.7c-0.1,0.4,0.2,0.9,0.6,0.9c0.4,0.1,0.8-0.2,0.9-0.6
	c0.3-1.5,1.1-5.5,1.5-7.3c0.4,0.1,0.6,0.2,0.7,0.2c0.1,0,0.1,0,0.2,0c0,0,0.3,0,0.7-0.2c0.4,1.8,1.3,5.8,1.5,7.3
	c0.1,0.4,0.4,0.7,0.8,0.7c0,0,0.1,0,0.1,0c0.4-0.1,0.7-0.5,0.6-0.9c0-0.1-1.6-8.2-1.9-8.7C23.8,50,23.6,49.9,23.4,49.8 M12,56.5
	c-0.4,0-0.8,0.4-0.8,0.8V59c0,0.4,0.4,0.8,0.8,0.8c0.4,0,0.8-0.4,0.8-0.8v-1.7C12.8,56.8,12.5,56.5,12,56.5 M14.9,26.3
	c-0.7,0.9-1.2,2-1.4,3.2c-0.1,0.4,0.2,0.8,0.7,0.9c0,0,0.1,0,0.1,0c0.4,0,0.7-0.3,0.8-0.7c0.1-0.9,0.5-1.7,1-2.4
	c0.3-0.3,0.2-0.8-0.1-1.1C15.7,26,15.2,26,14.9,26.3 M28.3,30.4c0,0.4,0.4,0.8,0.8,0.8c0.4,0,0.8-0.4,0.8-0.8c0-4.6-3.4-5.9-5.3-5.9
	h-7.3c-0.4,0-0.8,0.4-0.8,0.8c0,0.4,0.4,0.8,0.8,0.8h7.3C25,26.2,28.3,26.4,28.3,30.4 M30.9,28.7C31,28.7,31,28.6,30.9,28.7
	c0.5-0.1,0.8-0.5,0.8-0.9c-0.5-4.6-4.5-5.8-6.5-5.7h-6.9c-0.4,0-0.8,0.4-0.8,0.8c0,0.4,0.4,0.8,0.8,0.8h6.9c0.2,0,4.4,0,4.9,4.3
	C30.2,28.4,30.5,28.7,30.9,28.7 M58.2,4H5.6C5.1,4,4.8,4.4,4.8,4.8v41.7c0,0.4,0.4,0.8,0.8,0.8h4.9C7.6,49.4,4.6,53,4.6,59
	c0,0.4,0.4,0.8,0.8,0.8c0.4,0,0.8-0.4,0.8-0.8c0-8.1,6-11.3,8.3-12.2l0.1,2c0,0.3,0.2,0.5,0.4,0.6c0.1,0.1,0.3,0.1,0.4,0.1
	c0.1,0,0.2,0,0.3-0.1l2.7-1.2c0.4-0.2,0.6-0.7,0.4-1.1c-0.2-0.4-0.7-0.6-1.1-0.4l-1.6,0.7L16,44.3c0-0.4-0.4-0.8-0.8-0.8
	c-0.4,0-0.8,0.4-0.8,0.8l0,0.7c-0.3,0.1-0.8,0.3-1.4,0.6c0,0,0,0,0,0H6.4V5.6h51v40.1H43.3c2.6-5.4,2-12,2-12.3
	c0-0.4-0.4-0.7-0.8-0.7h-3.9c-0.4,0-0.8,0.4-0.8,0.8c0,4.1-1.1,7.1-3.2,8.8c-2.5,2.1-5.8,2-7.2,1.8c-0.1-0.3-0.4-0.6-0.7-0.6
	c-0.4,0-0.8,0.3-0.8,0.8l-0.2,3.2l-1.5-0.7c-0.4-0.2-0.9,0-1.1,0.4c-0.2,0.4,0,0.9,0.4,1.1l2.5,1.2c0.1,0.1,0.2,0.1,0.3,0.1
	c0.1,0,0.3,0,0.4-0.1c0.2-0.1,0.4-0.4,0.4-0.6l0.2-2.9c1.7,0.2,5.3,0.2,8.2-2.2c2.4-2,3.7-5.1,3.8-9.3h2.4c0.1,2.3,0,9.6-3.9,13.8
	c-2,2.1-4.6,3.2-8,3.2c-0.4,0-0.8,0.4-0.8,0.8c0,0.4,0.4,0.8,0.8,0.8c3.8,0,6.9-1.3,9.2-3.7c0.5-0.6,1-1.2,1.4-1.9h3.9v12.1
	c0,0.4,0.4,0.8,0.8,0.8c0.4,0,0.8-0.4,0.8-0.8V47.3h2v12.1c0,0.4,0.4,0.8,0.8,0.8c0.4,0,0.8-0.4,0.8-0.8V47.3h6.6
	c0.4,0,0.8-0.4,0.8-0.8V4.8C59,4.4,58.6,4,58.2,4 M31.9,54c-0.4,0-0.8,0.4-0.8,0.8V59c0,0.4,0.4,0.8,0.8,0.8c0.4,0,0.8-0.4,0.8-0.8
	v-4.2C32.7,54.3,32.3,54,31.9,54 M28.6,10.6c0.4,0,0.8-0.4,0.8-0.8C29.4,9.3,29,9,28.6,9H14.3c-0.4,0-0.8,0.4-0.8,0.8
	c0,0.4,0.4,0.8,0.8,0.8H28.6z M10.1,12.9c0,0.4,0.4,0.8,0.8,0.8h17.7c0.4,0,0.8-0.4,0.8-0.8c0-0.4-0.4-0.8-0.8-0.8H10.9
	C10.5,12.1,10.1,12.5,10.1,12.9 M10.9,16.9h17.7c0.4,0,0.8-0.4,0.8-0.8c0-0.4-0.4-0.8-0.8-0.8H10.9c-0.4,0-0.8,0.4-0.8,0.8
	C10.1,16.5,10.5,16.9,10.9,16.9 M10.9,20.1h17.7c0.4,0,0.8-0.4,0.8-0.8c0-0.4-0.4-0.8-0.8-0.8H10.9c-0.4,0-0.8,0.4-0.8,0.8
	C10.1,19.7,10.5,20.1,10.9,20.1 M55.5,11.2c0.3-0.3,0.4-0.8,0.1-1.1c-0.3-0.3-0.8-0.4-1.1-0.1l-8.7,7.3l-4.5-4.8
	c-0.3-0.3-0.8-0.4-1.1-0.1L34.8,17c-0.4,0.3-0.4,0.8-0.2,1.1c0.3,0.4,0.8,0.4,1.1,0.2l4.8-4.1l4.6,4.8c0.1,0.2,0.3,0.3,0.6,0.3
	c0,0,0.1,0,0.1,0c0.2,0,0.4-0.1,0.5-0.2L55.5,11.2z M41.6,19.3l-0.3,5.8c0.4,0,0.7,0,0.9,0c0.9,0,3.5,0,3.5,2.6v1.1
	c0,1.9-1.6,3.5-3.5,3.5c-1.9,0-3.5-1.6-3.5-3.5v-1.1c0-1,0.4-1.6,0.9-2l0.3-6.4c0-0.4,0.4-0.8,0.8-0.8
	C41.3,18.5,41.6,18.9,41.6,19.3 M42.3,26.7c-1.9,0-1.9,0.5-1.9,1v1.1c0,1,0.9,1.9,1.9,1.9c1,0,1.9-0.9,1.9-1.9v-1.1
	C44.2,27.2,44.2,26.7,42.3,26.7 M22,33.5v4h-1c-0.4,0-0.8,0.4-0.8,0.8c0,0.4,0.4,0.8,0.8,0.8h1.8c0.4,0,0.8-0.4,0.8-0.8v-4.9
	c0-0.4-0.4-0.8-0.8-0.8C22.4,32.7,22,33.1,22,33.5"/>
</svg>
