<?xml version="1.0" encoding="utf-8"?>
<!-- Generator: Adobe Illustrator 21.1.0, SVG Export Plug-In . SVG Version: 6.00 Build 0)  -->
<svg version="1.1" id="Layer_1" xmlns="http://www.w3.org/2000/svg" xmlns:xlink="http://www.w3.org/1999/xlink" x="0px" y="0px"
	 viewBox="0 0 44.8 43.7" style="enable-background:new 0 0 44.8 43.7;" xml:space="preserve">
<style type="text/css">
	.st0{fill:#3A74BA;}
	.st1{fill:#D4EDEE;}
	.st2{fill:#81D2E2;}
	.st3{fill:#FFC71E;}
	.st4{fill:#EBA230;}
</style>
<g>
	<g>
		<circle class="st0" cx="22.4" cy="21.8" r="21.8"/>
		<path class="st1" d="M24.3,21.8c2-0.7,3.5-2.3,3.9-4.4l1.5-7.4H15.1l1.5,7.4c0.4,2.1,1.9,3.8,3.9,4.4c-2,0.7-3.5,2.3-3.9,4.4
			l-1.5,7.4h14.6l-1.5-7.4C27.8,24.2,26.2,22.5,24.3,21.8z"/>
		<path class="st2" d="M28.2,26.3c-0.4-2.1-1.9-3.8-3.9-4.4c2-0.7,3.5-2.3,3.9-4.4l1.5-7.4h-7.3v23.6h7.3L28.2,26.3z"/>
	</g>
	<g>
		<path class="st3" d="M29.4,11.1h-14c-0.6,0-1-0.4-1-1l0,0c0-0.6,0.4-1,1-1h14c0.6,0,1,0.4,1,1l0,0C30.4,10.6,29.9,11.1,29.4,11.1z
			"/>
		<path class="st3" d="M29.4,34.9h-14c-0.6,0-1-0.4-1-1l0,0c0-0.6,0.4-1,1-1h14c0.6,0,1,0.4,1,1l0,0C30.4,34.4,29.9,34.9,29.4,34.9z
			"/>
	</g>
	<g>
		<path class="st4" d="M29.4,9.1h-7.1v2h7.1c0.6,0,1-0.4,1-1C30.4,9.5,29.9,9.1,29.4,9.1z"/>
		<path class="st4" d="M29.4,32.9h-7.1v2h7.1c0.6,0,1-0.4,1-1C30.4,33.3,29.9,32.9,29.4,32.9z"/>
	</g>
</g>
</svg>
